# xmcd
#
# Track frame offsets:
#	150
#	20094
#	36504
#	43786
#	59181
#	72719
#	86709
#	106114
#	124237
#	139639
#	157030
#	166634
#	187038
#
# Disc length: 2820 seconds
#
# Revision: 1
# Processed by: cddbd v1.5.2PL0 Copyright (c) Steve Scherf et al.
# Submitted via: audiograbber 1.83.01
#
DISCID=c30b020d
DTITLE=Harry Belafonte - Christmas Is Coming
DYEAR=1900
DGENRE=Ballad
TTITLE0=Mary's Boy Child
TTITLE1=Silent Night
TTITLE2=Christmas Is Coming
TTITLE3=Mary, Mary
TTITLE4=Jehova The Lord Will Provide
TTITLE5=I Heard The Bells On Christmas Day
TTITLE6=A Star In The East
TTITLE7=The Gifts The Gave
TTITLE8=The Son Of Mary (Greensleeves)
TTITLE9=The Twelve Days Of Christmas
TTITLE10=Where The Little Jesus Sleeps
TTITLE11=Medley: We Wish You A Merry Christmas - Got Rest Ye Merry Gentlemen - 
TTITLE11=O Come All Ye Faithful - Joy To The World
TTITLE12=Medley: The Joys Of Christmas - O Little Town Of Betlehem - Deck The H
TTITLE12=alls - The First Noel
EXTD=
EXTT0=
EXTT1=
EXTT2=
EXTT3=
EXTT4=
EXTT5=
EXTT6=
EXTT7=
EXTT8=
EXTT9=
EXTT10=
EXTT11=
EXTT12=
PLAYORDER=
